M48
METRIC,TZ
T1C0.282
T2C0.768
T3C0.868
T4C0.960
T5C1.158
T6C1.514
T7C1.562
%
G90
G05
T1
X-7344Y-751
X4223Y-3634
X725Y-1735
X-2346Y-1127
X2214Y634
X-2082Y795
X-165Y5094
X-3374Y4966
X-5290Y8476
X4337Y8051
X-200Y19717
X2238Y19892
T2
X-6692Y12874
X-7399Y801
X-194Y-10261
X-6692Y10874
X-6692Y8866
X-198Y-12278
T3
X-7927Y-26580
T4
X3712Y21536
X5386Y14396
X2444Y-19104
X-3285Y19076
X-2611Y-26585
X-6629Y14943
X-76Y-19104
X7736Y-26585
X6711Y36333
X-2611Y-19104
X-6849Y36290
X2444Y-26585
X6679Y18861
X-780Y16573
X3925Y-24853
X-3285Y14058
X-76Y-26585
X-6848Y18845
X1171Y-24853
X7736Y-23021
X2444Y-23021
X-2611Y-26585
X-2611Y-23021
X-1375Y-24853
X-7903Y-23021
X-3285Y16565
X-76Y-23021
X-4083Y-24846
T5
X-35Y35778
X-35Y29957
T6
X14539Y12695
X-2566Y-29975
T7
X-3573Y-32424
X3356Y-32424
X2342Y-34874
X-108Y-35889
X-108Y-28960
X2342Y-29975
X-2558Y-34874
T0
M30
